<svg width="251" height="177" id="my-svg" xmlns="http://www.w3.org/2000/svg" xmlns:xlink="http://www.w3.org/1999/xlink" class="erDiagram" style="background-color: transparent;" viewBox="10.25 4 250.640625 177" role="graphics-document document" aria-roledescription="er"><style>#my-svg{font-family:Segoe UI,Arial,sans-serif;font-size:18px;fill:#10161c;}@keyframes edge-animation-frame{from{stroke-dashoffset:0;}}@keyframes dash{to{stroke-dashoffset:0;}}#my-svg .edge-animation-slow{stroke-dasharray:9,5!important;stroke-dashoffset:900;animation:dash 50s linear infinite;stroke-linecap:round;}#my-svg .edge-animation-fast{stroke-dasharray:9,5!important;stroke-dashoffset:900;animation:dash 20s linear infinite;stroke-linecap:round;}#my-svg .error-icon{fill:#fff4e5;}#my-svg .error-text{fill:#000b1a;stroke:#000b1a;}#my-svg .edge-thickness-normal{stroke-width:1px;}#my-svg .edge-thickness-thick{stroke-width:3.5px;}#my-svg .edge-pattern-solid{stroke-dasharray:0;}#my-svg .edge-thickness-invisible{stroke-width:0;fill:none;}#my-svg .edge-pattern-dashed{stroke-dasharray:3;}#my-svg .edge-pattern-dotted{stroke-dasharray:2;}#my-svg .marker{fill:#5b6771;stroke:#5b6771;}#my-svg .marker.cross{stroke:#5b6771;}#my-svg svg{font-family:Segoe UI,Arial,sans-serif;font-size:18px;}#my-svg p{margin:0;}#my-svg .entityBox{fill:#003d75;stroke:#003d75;}#my-svg .relationshipLabelBox{fill:#fff4e5;opacity:0.7;background-color:#fff4e5;}#my-svg .relationshipLabelBox rect{opacity:0.5;}#my-svg .labelBkg{background-color:rgba(255, 244, 229, 0.5);}#my-svg .edgeLabel{background-color:#ffffff;}#my-svg .edgeLabel .label rect{fill:#ffffff;}#my-svg .edgeLabel .label text{fill:#10161c;}#my-svg .edgeLabel .label{fill:#003d75;font-size:14px;}#my-svg .label{font-family:Segoe UI,Arial,sans-serif;color:#10161c;}#my-svg .edge-pattern-dashed{stroke-dasharray:8,8;}#my-svg .node rect,#my-svg .node circle,#my-svg .node ellipse,#my-svg .node polygon{fill:#003d75;stroke:#003d75;stroke-width:1px;}#my-svg .relationshipLine{stroke:#5b6771;stroke-width:1px;fill:none;}#my-svg .marker{fill:none!important;stroke:#5b6771!important;stroke-width:1;}#my-svg [data-look=neo].labelBkg{background-color:rgba(255, 244, 229, 0.5);}#my-svg .cluster rect{fill:#f4f7fa;stroke:#c3ced8;stroke-width:1px;}#my-svg .cluster text{fill:#003d75;}#my-svg .cluster-label text{fill:#003d75;}#my-svg .node .neo-node{stroke:#003d75;}#my-svg [data-look="neo"].node rect,#my-svg [data-look="neo"].cluster rect,#my-svg [data-look="neo"].node polygon{stroke:url(#my-svg-gradient);filter:drop-shadow( 1px 2px 2px rgba(185,185,185,1));}#my-svg [data-look="neo"].swimlane.cluster rect{filter:none;}#my-svg [data-look="neo"].node path{stroke:url(#my-svg-gradient);stroke-width:1px;}#my-svg [data-look="neo"].node .outer-path{filter:drop-shadow( 1px 2px 2px rgba(185,185,185,1));}#my-svg [data-look="neo"].node .neo-line path{stroke:#003d75;filter:none;}#my-svg [data-look="neo"].node circle{stroke:url(#my-svg-gradient);filter:drop-shadow( 1px 2px 2px rgba(185,185,185,1));}#my-svg [data-look="neo"].node circle .state-start{fill:#000000;}#my-svg [data-look="neo"].icon-shape .icon{fill:url(#my-svg-gradient);filter:drop-shadow( 1px 2px 2px rgba(185,185,185,1));}#my-svg [data-look="neo"].icon-shape .icon-neo path{stroke:url(#my-svg-gradient);filter:drop-shadow( 1px 2px 2px rgba(185,185,185,1));}#my-svg .node .label:not(.attribute-type):not(.attribute-name):not(.attribute-keys):not(.attribute-comment) text,#my-svg .node .label:not(.attribute-type):not(.attribute-name):not(.attribute-keys):not(.attribute-comment) tspan{fill:rgb(255, 255, 255)!important;}#my-svg .label.name text,#my-svg .label.name tspan{font-weight:700!important;}#my-svg .label.attribute-comment text,#my-svg .label.attribute-comment tspan{fill:rgb(138, 66, 0)!important;font-weight:700!important;}#my-svg .label.attribute-type text,#my-svg .label.attribute-type tspan{fill:rgb(91, 103, 113)!important;}#my-svg .label.attribute-name text,#my-svg .label.attribute-name tspan{fill:rgb(16, 22, 28)!important;}#my-svg .edgeLabel .label text,#my-svg .edgeLabel .label tspan{fill:rgb(16, 22, 28)!important;}#my-svg .cluster rect{rx:10;ry:10;}#my-svg :root{--mermaid-font-family:"trebuchet ms",verdana,arial,sans-serif;}</style><g><defs><marker id="my-svg_er-onlyOneStart" class="marker onlyOne er" refX="0" refY="9" markerWidth="18" markerHeight="18" orient="auto"><path d="M9,0 L9,18 M15,0 L15,18"/></marker></defs><defs><marker id="my-svg_er-onlyOneEnd" class="marker onlyOne er" refX="18" refY="9" markerWidth="18" markerHeight="18" orient="auto"><path d="M3,0 L3,18 M9,0 L9,18"/></marker></defs><defs><marker id="my-svg_er-zeroOrOneStart" class="marker zeroOrOne er" refX="0" refY="9" markerWidth="30" markerHeight="18" orient="auto"><circle fill="white" cx="21" cy="9" r="6"/><path d="M9,0 L9,18"/></marker></defs><defs><marker id="my-svg_er-zeroOrOneEnd" class="marker zeroOrOne er" refX="30" refY="9" markerWidth="30" markerHeight="18" orient="auto"><circle fill="white" cx="9" cy="9" r="6"/><path d="M21,0 L21,18"/></marker></defs><defs><marker id="my-svg_er-oneOrMoreStart" class="marker oneOrMore er" refX="18" refY="18" markerWidth="45" markerHeight="36" orient="auto"><path d="M0,18 Q 18,0 36,18 Q 18,36 0,18 M42,9 L42,27"/></marker></defs><defs><marker id="my-svg_er-oneOrMoreEnd" class="marker oneOrMore er" refX="27" refY="18" markerWidth="45" markerHeight="36" orient="auto"><path d="M3,9 L3,27 M9,18 Q27,0 45,18 Q27,36 9,18"/></marker></defs><defs><marker id="my-svg_er-zeroOrMoreStart" class="marker zeroOrMore er" refX="18" refY="18" markerWidth="57" markerHeight="36" orient="auto"><circle fill="white" cx="48" cy="18" r="6"/><path d="M0,18 Q18,0 36,18 Q18,36 0,18"/></marker></defs><defs><marker id="my-svg_er-zeroOrMoreEnd" class="marker zeroOrMore er" refX="39" refY="18" markerWidth="57" markerHeight="36" orient="auto"><circle fill="white" cx="9" cy="18" r="6"/><path d="M21,18 Q39,0 57,18 Q39,36 21,18"/></marker></defs><g class="root"><g class="edges edgePath"/><g class="clusters"/><g class="edgeLabels"/><g class="nodes"><g class="node default" id="my-svg-entity-JOGO-0" data-look="classic" transform="translate(129.3203125, 92.5)"><g class="outer-path" style=""><path d="M-111.0703125 -80.5 L111.0703125 -80.5 L111.0703125 80.5 L-111.0703125 80.5" stroke="none" stroke-width="0" fill="#003d75"/><path d="M-111.0703125 -80.5 C-63.02894020154799 -80.5, -14.987567903095979 -80.5, 111.0703125 -80.5 M-111.0703125 -80.5 C-45.32783206016701 -80.5, 20.414648379665977 -80.5, 111.0703125 -80.5 M111.0703125 -80.5 C111.0703125 -38.1801851338415, 111.0703125 4.139629732317005, 111.0703125 80.5 M111.0703125 -80.5 C111.0703125 -39.64144919274145, 111.0703125 1.2171016145171052, 111.0703125 80.5 M111.0703125 80.5 C43.15789418391397 80.5, -24.754524132172065 80.5, -111.0703125 80.5 M111.0703125 80.5 C45.20145284801049 80.5, -20.66740680397902 80.5, -111.0703125 80.5 M-111.0703125 80.5 C-111.0703125 27.47975530996999, -111.0703125 -25.540489380060023, -111.0703125 -80.5 M-111.0703125 80.5 C-111.0703125 30.010546933587264, -111.0703125 -20.478906132825472, -111.0703125 -80.5" stroke="#003d75" stroke-width="1.3" fill="none" stroke-dasharray="0 0"/></g><g style="" class="row-rect-odd"><path d="M-111.0703125 -40.5 L111.0703125 -40.5 L111.0703125 -0.5 L-111.0703125 -0.5" stroke="none" stroke-width="0" fill="#ffffff"/><path d="M-111.0703125 -40.5 C-49.68716039540259 -40.5, 11.695991709194814 -40.5, 111.0703125 -40.5 M-111.0703125 -40.5 C-53.692210368256994 -40.5, 3.685891763486012 -40.5, 111.0703125 -40.5 M111.0703125 -40.5 C111.0703125 -26.837914073393804, 111.0703125 -13.175828146787609, 111.0703125 -0.5 M111.0703125 -40.5 C111.0703125 -26.83949667649594, 111.0703125 -13.178993352991881, 111.0703125 -0.5 M111.0703125 -0.5 C54.68851403025671 -0.5, -1.6932844394865754 -0.5, -111.0703125 -0.5 M111.0703125 -0.5 C60.99310711503171 -0.5, 10.915901730063425 -0.5, -111.0703125 -0.5 M-111.0703125 -0.5 C-111.0703125 -15.337173471028287, -111.0703125 -30.174346942056573, -111.0703125 -40.5 M-111.0703125 -0.5 C-111.0703125 -10.867605398554467, -111.0703125 -21.235210797108934, -111.0703125 -40.5" stroke="#003d75" stroke-width="1.3" fill="none" stroke-dasharray="0 0"/></g><g style="" class="row-rect-even"><path d="M-111.0703125 -0.5 L111.0703125 -0.5 L111.0703125 39.5 L-111.0703125 39.5" stroke="none" stroke-width="0" fill="#e9eff5"/><path d="M-111.0703125 -0.5 C-36.029083486413185 -0.5, 39.01214552717363 -0.5, 111.0703125 -0.5 M-111.0703125 -0.5 C-43.11452846706736 -0.5, 24.841255565865282 -0.5, 111.0703125 -0.5 M111.0703125 -0.5 C111.0703125 11.412358455682002, 111.0703125 23.324716911364003, 111.0703125 39.5 M111.0703125 -0.5 C111.0703125 11.028051326079666, 111.0703125 22.556102652159332, 111.0703125 39.5 M111.0703125 39.5 C52.55558250223855 39.5, -5.959147495522899 39.5, -111.0703125 39.5 M111.0703125 39.5 C48.674376694118976 39.5, -13.721559111762048 39.5, -111.0703125 39.5 M-111.0703125 39.5 C-111.0703125 25.68076869558868, -111.0703125 11.861537391177357, -111.0703125 -0.5 M-111.0703125 39.5 C-111.0703125 25.292650566476816, -111.0703125 11.085301132953628, -111.0703125 -0.5" stroke="#003d75" stroke-width="1.3" fill="none" stroke-dasharray="0 0"/></g><g style="" class="row-rect-odd"><path d="M-111.0703125 39.5 L111.0703125 39.5 L111.0703125 80.5 L-111.0703125 80.5" stroke="none" stroke-width="0" fill="#ffffff"/><path d="M-111.0703125 39.5 C-46.618660193816 39.5, 17.832992112368004 39.5, 111.0703125 39.5 M-111.0703125 39.5 C-47.24293208704719 39.5, 16.584448325905626 39.5, 111.0703125 39.5 M111.0703125 39.5 C111.0703125 53.048202656047444, 111.0703125 66.59640531209489, 111.0703125 80.5 M111.0703125 39.5 C111.0703125 48.87716277263077, 111.0703125 58.25432554526154, 111.0703125 80.5 M111.0703125 80.5 C34.882839987447255 80.5, -41.30463252510549 80.5, -111.0703125 80.5 M111.0703125 80.5 C29.0920306710059 80.5, -52.8862511579882 80.5, -111.0703125 80.5 M-111.0703125 80.5 C-111.0703125 64.10404844833371, -111.0703125 47.70809689666743, -111.0703125 39.5 M-111.0703125 80.5 C-111.0703125 65.4358459876142, -111.0703125 50.37169197522839, -111.0703125 39.5" stroke="#003d75" stroke-width="1.3" fill="none" stroke-dasharray="0 0"/></g><g class="label name" transform="translate(-26.0078125, -70.5)" style=""><g><rect class="background" style="stroke: none"/></g><text y="-10.1" style=""><tspan class="text-outer-tspan row" x="0" y="-0.1em" dy="1.1em"><tspan font-style="normal" class="text-inner-tspan" font-weight="normal">JOGO</tspan></tspan></text></g><g class="label attribute-type" transform="translate(-98.5703125, -30.5)" style=""><g><rect class="background" style="stroke: none"/></g><text y="-10.1" style=""><tspan class="text-outer-tspan row" x="0" y="-0.1em" dy="1.1em"><tspan font-style="normal" class="text-inner-tspan" font-weight="normal">texto</tspan></tspan></text></g><g class="label attribute-name" transform="translate(-34.5390625, -30.5)" style=""><g><rect class="background" style="stroke: none"/></g><text y="-10.1" style=""><tspan class="text-outer-tspan row" x="0" y="-0.1em" dy="1.1em"><tspan font-style="normal" class="text-inner-tspan" font-weight="normal">titulo</tspan></tspan></text></g><g class="label attribute-keys" transform="translate(123.5703125, -30.5)" style=""><g><rect class="background" style="stroke: none"/></g><text y="-10.1" style=""><tspan class="text-outer-tspan row" x="0" y="-0.1em" dy="1.1em"/></text></g><g class="label attribute-comment" transform="translate(123.5703125, -30.5)" style=""><g><rect class="background" style="stroke: none"/></g><text y="-10.1" style=""><tspan class="text-outer-tspan row" x="0" y="-0.1em" dy="1.1em"/></text></g><g class="label attribute-type" transform="translate(-98.5703125, 9.5)" style=""><g><rect class="background" style="stroke: none"/></g><text y="-10.1" style=""><tspan class="text-outer-tspan row" x="0" y="-0.1em" dy="1.1em"><tspan font-style="normal" class="text-inner-tspan" font-weight="normal">texto</tspan></tspan></text></g><g class="label attribute-name" transform="translate(-34.5390625, 9.5)" style=""><g><rect class="background" style="stroke: none"/></g><text y="-10.1" style=""><tspan class="text-outer-tspan row" x="0" y="-0.1em" dy="1.1em"><tspan font-style="normal" class="text-inner-tspan" font-weight="normal">genero</tspan></tspan></text></g><g class="label attribute-keys" transform="translate(123.5703125, 9.5)" style=""><g><rect class="background" style="stroke: none"/></g><text y="-10.1" style=""><tspan class="text-outer-tspan row" x="0" y="-0.1em" dy="1.1em"/></text></g><g class="label attribute-comment" transform="translate(123.5703125, 9.5)" style=""><g><rect class="background" style="stroke: none"/></g><text y="-10.1" style=""><tspan class="text-outer-tspan row" x="0" y="-0.1em" dy="1.1em"/></text></g><g class="label attribute-type" transform="translate(-98.5703125, 49.5)" style=""><g><rect class="background" style="stroke: none"/></g><text y="-10.1" style=""><tspan class="text-outer-tspan row" x="0" y="-0.1em" dy="1.1em"><tspan font-style="normal" class="text-inner-tspan" font-weight="normal">int</tspan></tspan></text></g><g class="label attribute-name" transform="translate(-34.5390625, 49.5)" style=""><g><rect class="background" style="stroke: none"/></g><text y="-10.1" style=""><tspan class="text-outer-tspan row" x="0" y="-0.1em" dy="1.1em"><tspan font-style="normal" class="text-inner-tspan" font-weight="normal">ano_lancamento</tspan></tspan></text></g><g class="label attribute-keys" transform="translate(123.5703125, 49.5)" style=""><g><rect class="background" style="stroke: none"/></g><text y="-10.1" style=""><tspan class="text-outer-tspan row" x="0" y="-0.1em" dy="1.1em"/></text></g><g class="label attribute-comment" transform="translate(123.5703125, 49.5)" style=""><g><rect class="background" style="stroke: none"/></g><text y="-10.1" style=""><tspan class="text-outer-tspan row" x="0" y="-0.1em" dy="1.1em"/></text></g><g class="divider"><path d="M-111.0703125 -40.50005 L-111.0703125 -40.49995 L111.0703125 -40.49995 L111.0703125 -40.50005" stroke="none" stroke-width="0" fill="#003d75" fill-rule="evenodd"/><path d="M-111.0703125 -40.50005 C-111.0703125 -40.5000137183938, -111.0703125 -40.4999774367876, -111.0703125 -40.49995 M-111.0703125 -40.50005 C-111.0703125 -40.50002577228446, -111.0703125 -40.50000154456892, -111.0703125 -40.49995 M-111.0703125 -40.49995 C-50.453586919193846 -40.49995, 10.163138661612308 -40.49995, 111.0703125 -40.49995 M-111.0703125 -40.49995 C-52.73590908790966 -40.49995, 5.5984943241806775 -40.49995, 111.0703125 -40.49995 M111.0703125 -40.49995 C111.0703125 -40.49998831944934, 111.0703125 -40.50002663889869, 111.0703125 -40.50005 M111.0703125 -40.49995 C111.0703125 -40.499977395568095, 111.0703125 -40.50000479113619, 111.0703125 -40.50005 M111.0703125 -40.50005 C35.2190934610622 -40.50005, -40.6321255778756 -40.50005, -111.0703125 -40.50005 M111.0703125 -40.50005 C57.594108470212504 -40.50005, 4.117904440425008 -40.50005, -111.0703125 -40.50005" stroke="#003d75" stroke-width="1.3" fill="none" stroke-dasharray="0 0"/></g><g class="divider"><path d="M-47.0391125 -40.5 L-47.0390125 -40.5 L-47.0390125 80.5 L-47.0391125 80.5" stroke="none" stroke-width="0" fill="#003d75" fill-rule="evenodd"/><path d="M-47.0391125 -40.5 C-47.03907379251891 -40.5, -47.03903508503782 -40.5, -47.0390125 -40.5 M-47.0391125 -40.5 C-47.03907518394303 -40.5, -47.03903786788606 -40.5, -47.0390125 -40.5 M-47.0390125 -40.5 C-47.0390125 -4.788444338619108, -47.0390125 30.923111322761784, -47.0390125 80.5 M-47.0390125 -40.5 C-47.0390125 -4.583336521052338, -47.0390125 31.333326957895324, -47.0390125 80.5 M-47.0390125 80.5 C-47.03904931517631 80.5, -47.039086130352615 80.5, -47.0391125 80.5 M-47.0390125 80.5 C-47.039046829916835 80.5, -47.03908115983367 80.5, -47.0391125 80.5 M-47.0391125 80.5 C-47.0391125 55.31510122976848, -47.0391125 30.13020245953696, -47.0391125 -40.5 M-47.0391125 80.5 C-47.0391125 41.1100904121143, -47.0391125 1.7201808242286063, -47.0391125 -40.5" stroke="#003d75" stroke-width="1.3" fill="none" stroke-dasharray="0 0"/></g><g class="divider"><path d="M-111.0703125 -40.50005 L-111.0703125 -40.49995 L111.0703125 -40.49995 L111.0703125 -40.50005" stroke="none" stroke-width="0" fill="#003d75" fill-rule="evenodd"/><path d="M-111.0703125 -40.50005 C-111.0703125 -40.50002290232838, -111.0703125 -40.499995804656756, -111.0703125 -40.49995 M-111.0703125 -40.50005 C-111.0703125 -40.50002085662554, -111.0703125 -40.49999171325108, -111.0703125 -40.49995 M-111.0703125 -40.49995 C-25.893365967265893 -40.49995, 59.28358056546821 -40.49995, 111.0703125 -40.49995 M-111.0703125 -40.49995 C-33.96431515199117 -40.49995, 43.141682196017655 -40.49995, 111.0703125 -40.49995 M111.0703125 -40.49995 C111.0703125 -40.499988351102644, 111.0703125 -40.50002670220528, 111.0703125 -40.50005 M111.0703125 -40.49995 C111.0703125 -40.499983089572176, 111.0703125 -40.500016179144346, 111.0703125 -40.50005 M111.0703125 -40.50005 C28.800403899211062 -40.50005, -53.469504701577875 -40.50005, -111.0703125 -40.50005 M111.0703125 -40.50005 C41.470682701639376 -40.50005, -28.128947096721248 -40.50005, -111.0703125 -40.50005" stroke="#003d75" stroke-width="1.3" fill="none" stroke-dasharray="0 0"/></g></g></g></g></g><defs><filter id="my-svg-drop-shadow" height="130%" width="130%"><feDropShadow dx="4" dy="4" stdDeviation="0" flood-opacity="0.06" flood-color="#000000"/></filter></defs><defs><filter id="my-svg-drop-shadow-small" height="150%" width="150%"><feDropShadow dx="2" dy="2" stdDeviation="0" flood-opacity="0.06" flood-color="#000000"/></filter></defs><linearGradient id="my-svg-gradient" gradientUnits="objectBoundingBox" x1="0%" y1="0%" x2="100%" y2="0%"><stop offset="0%" stop-color="#003d75" stop-opacity="1"/><stop offset="100%" stop-color="hsl(210, 0%, 86.862745098%)" stop-opacity="1"/></linearGradient></svg>