<svg width="642" height="178" id="my-svg" xmlns="http://www.w3.org/2000/svg" xmlns:xlink="http://www.w3.org/1999/xlink" class="erDiagram" style="background-color: transparent;" viewBox="10.25 4 642.455078125 178" role="graphics-document document" aria-roledescription="er"><style>#my-svg{font-family:Segoe UI,Arial,sans-serif;font-size:18px;fill:#10161c;}@keyframes edge-animation-frame{from{stroke-dashoffset:0;}}@keyframes dash{to{stroke-dashoffset:0;}}#my-svg .edge-animation-slow{stroke-dasharray:9,5!important;stroke-dashoffset:900;animation:dash 50s linear infinite;stroke-linecap:round;}#my-svg .edge-animation-fast{stroke-dasharray:9,5!important;stroke-dashoffset:900;animation:dash 20s linear infinite;stroke-linecap:round;}#my-svg .error-icon{fill:#fff4e5;}#my-svg .error-text{fill:#000b1a;stroke:#000b1a;}#my-svg .edge-thickness-normal{stroke-width:1px;}#my-svg .edge-thickness-thick{stroke-width:3.5px;}#my-svg .edge-pattern-solid{stroke-dasharray:0;}#my-svg .edge-thickness-invisible{stroke-width:0;fill:none;}#my-svg .edge-pattern-dashed{stroke-dasharray:3;}#my-svg .edge-pattern-dotted{stroke-dasharray:2;}#my-svg .marker{fill:#5b6771;stroke:#5b6771;}#my-svg .marker.cross{stroke:#5b6771;}#my-svg svg{font-family:Segoe UI,Arial,sans-serif;font-size:18px;}#my-svg p{margin:0;}#my-svg .entityBox{fill:#003d75;stroke:#003d75;}#my-svg .relationshipLabelBox{fill:#fff4e5;opacity:0.7;background-color:#fff4e5;}#my-svg .relationshipLabelBox rect{opacity:0.5;}#my-svg .labelBkg{background-color:rgba(255, 244, 229, 0.5);}#my-svg .edgeLabel{background-color:#ffffff;}#my-svg .edgeLabel .label rect{fill:#ffffff;}#my-svg .edgeLabel .label text{fill:#10161c;}#my-svg .edgeLabel .label{fill:#003d75;font-size:14px;}#my-svg .label{font-family:Segoe UI,Arial,sans-serif;color:#10161c;}#my-svg .edge-pattern-dashed{stroke-dasharray:8,8;}#my-svg .node rect,#my-svg .node circle,#my-svg .node ellipse,#my-svg .node polygon{fill:#003d75;stroke:#003d75;stroke-width:1px;}#my-svg .relationshipLine{stroke:#5b6771;stroke-width:1px;fill:none;}#my-svg .marker{fill:none!important;stroke:#5b6771!important;stroke-width:1;}#my-svg [data-look=neo].labelBkg{background-color:rgba(255, 244, 229, 0.5);}#my-svg .cluster rect{fill:#f4f7fa;stroke:#c3ced8;stroke-width:1px;}#my-svg .cluster text{fill:#003d75;}#my-svg .cluster-label text{fill:#003d75;}#my-svg .node .neo-node{stroke:#003d75;}#my-svg [data-look="neo"].node rect,#my-svg [data-look="neo"].cluster rect,#my-svg [data-look="neo"].node polygon{stroke:url(#my-svg-gradient);filter:drop-shadow( 1px 2px 2px rgba(185,185,185,1));}#my-svg [data-look="neo"].swimlane.cluster rect{filter:none;}#my-svg [data-look="neo"].node path{stroke:url(#my-svg-gradient);stroke-width:1px;}#my-svg [data-look="neo"].node .outer-path{filter:drop-shadow( 1px 2px 2px rgba(185,185,185,1));}#my-svg [data-look="neo"].node .neo-line path{stroke:#003d75;filter:none;}#my-svg [data-look="neo"].node circle{stroke:url(#my-svg-gradient);filter:drop-shadow( 1px 2px 2px rgba(185,185,185,1));}#my-svg [data-look="neo"].node circle .state-start{fill:#000000;}#my-svg [data-look="neo"].icon-shape .icon{fill:url(#my-svg-gradient);filter:drop-shadow( 1px 2px 2px rgba(185,185,185,1));}#my-svg [data-look="neo"].icon-shape .icon-neo path{stroke:url(#my-svg-gradient);filter:drop-shadow( 1px 2px 2px rgba(185,185,185,1));}#my-svg .node .label:not(.attribute-type):not(.attribute-name):not(.attribute-keys):not(.attribute-comment) text,#my-svg .node .label:not(.attribute-type):not(.attribute-name):not(.attribute-keys):not(.attribute-comment) tspan{fill:rgb(255, 255, 255)!important;}#my-svg .label.name text,#my-svg .label.name tspan{font-weight:700!important;}#my-svg .label.attribute-comment text,#my-svg .label.attribute-comment tspan{fill:rgb(138, 66, 0)!important;font-weight:700!important;}#my-svg .label.attribute-type text,#my-svg .label.attribute-type tspan{fill:rgb(91, 103, 113)!important;}#my-svg .label.attribute-name text,#my-svg .label.attribute-name tspan{fill:rgb(16, 22, 28)!important;}#my-svg .edgeLabel .label text,#my-svg .edgeLabel .label tspan{fill:rgb(16, 22, 28)!important;}#my-svg .cluster rect{rx:10;ry:10;}#my-svg :root{--mermaid-font-family:"trebuchet ms",verdana,arial,sans-serif;}</style><g><defs><marker id="my-svg_er-onlyOneStart" class="marker onlyOne er" refX="0" refY="9" markerWidth="18" markerHeight="18" orient="auto"><path d="M9,0 L9,18 M15,0 L15,18"/></marker></defs><defs><marker id="my-svg_er-onlyOneEnd" class="marker onlyOne er" refX="18" refY="9" markerWidth="18" markerHeight="18" orient="auto"><path d="M3,0 L3,18 M9,0 L9,18"/></marker></defs><defs><marker id="my-svg_er-zeroOrOneStart" class="marker zeroOrOne er" refX="0" refY="9" markerWidth="30" markerHeight="18" orient="auto"><circle fill="white" cx="21" cy="9" r="6"/><path d="M9,0 L9,18"/></marker></defs><defs><marker id="my-svg_er-zeroOrOneEnd" class="marker zeroOrOne er" refX="30" refY="9" markerWidth="30" markerHeight="18" orient="auto"><circle fill="white" cx="9" cy="9" r="6"/><path d="M21,0 L21,18"/></marker></defs><defs><marker id="my-svg_er-oneOrMoreStart" class="marker oneOrMore er" refX="18" refY="18" markerWidth="45" markerHeight="36" orient="auto"><path d="M0,18 Q 18,0 36,18 Q 18,36 0,18 M42,9 L42,27"/></marker></defs><defs><marker id="my-svg_er-oneOrMoreEnd" class="marker oneOrMore er" refX="27" refY="18" markerWidth="45" markerHeight="36" orient="auto"><path d="M3,9 L3,27 M9,18 Q27,0 45,18 Q27,36 9,18"/></marker></defs><defs><marker id="my-svg_er-zeroOrMoreStart" class="marker zeroOrMore er" refX="18" refY="18" markerWidth="57" markerHeight="36" orient="auto"><circle fill="white" cx="48" cy="18" r="6"/><path d="M0,18 Q18,0 36,18 Q18,36 0,18"/></marker></defs><defs><marker id="my-svg_er-zeroOrMoreEnd" class="marker zeroOrMore er" refX="39" refY="18" markerWidth="57" markerHeight="36" orient="auto"><circle fill="white" cx="9" cy="18" r="6"/><path d="M21,18 Q39,0 57,18 Q39,36 21,18"/></marker></defs><g class="root"><g class="edges edgePath"><path d="M230.5888671875,93L366.6201171875,93" id="my-svg-id_entity-PLATAFORMA-0_entity-JOGO-1_0" class="edge-thickness-normal edge-pattern-solid relationshipLine" style="fill:none;;;fill:none" data-edge="true" data-et="edge" data-id="id_entity-PLATAFORMA-0_entity-JOGO-1_0" data-points="W3sieCI6MjMwLjU4ODg2NzE4NzUsInkiOjkzfSx7IngiOjM2Ni42MjAxMTcxODc1LCJ5Ijo5M31d" data-look="classic" marker-start="url(#my-svg_er-onlyOneStart)" marker-end="url(#my-svg_er-zeroOrMoreEnd)"/></g><g class="clusters"/><g class="edgeLabels"><g class="edgeLabel" transform="translate(298.6044921875, 92.5)"><g class="label" data-id="id_entity-PLATAFORMA-0_entity-JOGO-1_0" transform="translate(0, -9.000000476837158)"><g><rect class="background" style="" x="-28.015625" y="0.0000019073486328125" width="56.03125" height="24"/><text y="-10.1" text-anchor="middle" style=""><tspan class="text-outer-tspan row" x="0" y="-0.1em" dy="1.1em" text-anchor="middle"><tspan font-style="normal" class="text-inner-tspan" font-weight="normal">possui</tspan></tspan></text></g></g></g></g><g class="nodes"><g class="node default" id="my-svg-entity-PLATAFORMA-0" data-look="classic" transform="translate(121.29443359375, 93)"><g class="outer-path" style=""><path d="M-103.04443359375 -60.5 L103.04443359375 -60.5 L103.04443359375 60.5 L-103.04443359375 60.5" stroke="none" stroke-width="0" fill="#003d75"/><path d="M-103.04443359375 -60.5 C-43.42024574635691 -60.5, 16.203942101036176 -60.5, 103.04443359375 -60.5 M-103.04443359375 -60.5 C-37.09743232555884 -60.5, 28.849568942632317 -60.5, 103.04443359375 -60.5 M103.04443359375 -60.5 C103.04443359375 -13.53836922676691, 103.04443359375 33.42326154646618, 103.04443359375 60.5 M103.04443359375 -60.5 C103.04443359375 -30.449451680245772, 103.04443359375 -0.39890336049154484, 103.04443359375 60.5 M103.04443359375 60.5 C55.76704911275473 60.5, 8.489664631759453 60.5, -103.04443359375 60.5 M103.04443359375 60.5 C50.08524819188218 60.5, -2.873937209985641 60.5, -103.04443359375 60.5 M-103.04443359375 60.5 C-103.04443359375 20.644048704292807, -103.04443359375 -19.211902591414386, -103.04443359375 -60.5 M-103.04443359375 60.5 C-103.04443359375 23.146064948380634, -103.04443359375 -14.207870103238733, -103.04443359375 -60.5" stroke="#003d75" stroke-width="1.3" fill="none" stroke-dasharray="0 0"/></g><g style="" class="row-rect-odd"><path d="M-103.04443359375 -20.5 L103.04443359375 -20.5 L103.04443359375 20.5 L-103.04443359375 20.5" stroke="none" stroke-width="0" fill="#ffffff"/><path d="M-103.04443359375 -20.5 C-58.57738775302586 -20.5, -14.11034191230172 -20.5, 103.04443359375 -20.5 M-103.04443359375 -20.5 C-22.62307430650843 -20.5, 57.79828498073314 -20.5, 103.04443359375 -20.5 M103.04443359375 -20.5 C103.04443359375 -6.1937320681096715, 103.04443359375 8.112535863780657, 103.04443359375 20.5 M103.04443359375 -20.5 C103.04443359375 -7.759420706416636, 103.04443359375 4.981158587166728, 103.04443359375 20.5 M103.04443359375 20.5 C31.959372767902735 20.5, -39.12568805794453 20.5, -103.04443359375 20.5 M103.04443359375 20.5 C51.286787744254376 20.5, -0.4708581052412484 20.5, -103.04443359375 20.5 M-103.04443359375 20.5 C-103.04443359375 5.292713342262415, -103.04443359375 -9.91457331547517, -103.04443359375 -20.5 M-103.04443359375 20.5 C-103.04443359375 4.432591185844753, -103.04443359375 -11.634817628310493, -103.04443359375 -20.5" stroke="#003d75" stroke-width="1.3" fill="none" stroke-dasharray="0 0"/></g><g style="" class="row-rect-even"><path d="M-103.04443359375 20.5 L103.04443359375 20.5 L103.04443359375 60.5 L-103.04443359375 60.5" stroke="none" stroke-width="0" fill="#e9eff5"/><path d="M-103.04443359375 20.5 C-30.2412833008499 20.5, 42.5618669920502 20.5, 103.04443359375 20.5 M-103.04443359375 20.5 C-49.345337902878896 20.5, 4.353757787992208 20.5, 103.04443359375 20.5 M103.04443359375 20.5 C103.04443359375 32.08182687163665, 103.04443359375 43.66365374327331, 103.04443359375 60.5 M103.04443359375 20.5 C103.04443359375 28.828335899573485, 103.04443359375 37.15667179914697, 103.04443359375 60.5 M103.04443359375 60.5 C42.62288569413936 60.5, -17.798662205471274 60.5, -103.04443359375 60.5 M103.04443359375 60.5 C52.726839731915476 60.5, 2.4092458700809516 60.5, -103.04443359375 60.5 M-103.04443359375 60.5 C-103.04443359375 45.718361625380226, -103.04443359375 30.936723250760455, -103.04443359375 20.5 M-103.04443359375 60.5 C-103.04443359375 46.1831929292202, -103.04443359375 31.8663858584404, -103.04443359375 20.5" stroke="#003d75" stroke-width="1.3" fill="none" stroke-dasharray="0 0"/></g><g class="label name" transform="translate(-61.65625, -50.5)" style=""><g><rect class="background" style="stroke: none"/></g><text y="-10.1" style=""><tspan class="text-outer-tspan row" x="0" y="-0.1em" dy="1.1em"><tspan font-style="normal" class="text-inner-tspan" font-weight="normal">PLATAFORMA</tspan></tspan></text></g><g class="label attribute-type" transform="translate(-90.54443359375, -10.5)" style=""><g><rect class="background" style="stroke: none"/></g><text y="-10.1" style=""><tspan class="text-outer-tspan row" x="0" y="-0.1em" dy="1.1em"><tspan font-style="normal" class="text-inner-tspan" font-weight="normal">int</tspan></tspan></text></g><g class="label attribute-name" transform="translate(-26.51318359375, -10.5)" style=""><g><rect class="background" style="stroke: none"/></g><text y="-10.1" style=""><tspan class="text-outer-tspan row" x="0" y="-0.1em" dy="1.1em"><tspan font-style="normal" class="text-inner-tspan" font-weight="normal">*id_plataforma</tspan></tspan></text></g><g class="label attribute-keys" transform="translate(115.54443359375, -10.5)" style=""><g><rect class="background" style="stroke: none"/></g><text y="-10.1" style=""><tspan class="text-outer-tspan row" x="0" y="-0.1em" dy="1.1em"/></text></g><g class="label attribute-comment" transform="translate(115.54443359375, -10.5)" style=""><g><rect class="background" style="stroke: none"/></g><text y="-10.1" style=""><tspan class="text-outer-tspan row" x="0" y="-0.1em" dy="1.1em"/></text></g><g class="label attribute-type" transform="translate(-90.54443359375, 30.5)" style=""><g><rect class="background" style="stroke: none"/></g><text y="-10.1" style=""><tspan class="text-outer-tspan row" x="0" y="-0.1em" dy="1.1em"><tspan font-style="normal" class="text-inner-tspan" font-weight="normal">texto</tspan></tspan></text></g><g class="label attribute-name" transform="translate(-26.51318359375, 30.5)" style=""><g><rect class="background" style="stroke: none"/></g><text y="-10.1" style=""><tspan class="text-outer-tspan row" x="0" y="-0.1em" dy="1.1em"><tspan font-style="normal" class="text-inner-tspan" font-weight="normal">nome</tspan></tspan></text></g><g class="label attribute-keys" transform="translate(115.54443359375, 30.5)" style=""><g><rect class="background" style="stroke: none"/></g><text y="-10.1" style=""><tspan class="text-outer-tspan row" x="0" y="-0.1em" dy="1.1em"/></text></g><g class="label attribute-comment" transform="translate(115.54443359375, 30.5)" style=""><g><rect class="background" style="stroke: none"/></g><text y="-10.1" style=""><tspan class="text-outer-tspan row" x="0" y="-0.1em" dy="1.1em"/></text></g><g class="divider"><path d="M-103.04443359375 -20.50005 L-103.04443359375 -20.49995 L103.04443359375 -20.49995 L103.04443359375 -20.50005" stroke="none" stroke-width="0" fill="#003d75" fill-rule="evenodd"/><path d="M-103.04443359375 -20.50005 C-103.04443359375 -20.50002982660436, -103.04443359375 -20.50000965320872, -103.04443359375 -20.49995 M-103.04443359375 -20.50005 C-103.04443359375 -20.500029747245144, -103.04443359375 -20.500009494490282, -103.04443359375 -20.49995 M-103.04443359375 -20.49995 C-48.414370100453034 -20.49995, 6.2156933928439315 -20.49995, 103.04443359375 -20.49995 M-103.04443359375 -20.49995 C-47.90692665274852 -20.49995, 7.230580288252966 -20.49995, 103.04443359375 -20.49995 M103.04443359375 -20.49995 C103.04443359375 -20.499988486276763, 103.04443359375 -20.500026972553524, 103.04443359375 -20.50005 M103.04443359375 -20.49995 C103.04443359375 -20.49998690123388, 103.04443359375 -20.500023802467755, 103.04443359375 -20.50005 M103.04443359375 -20.50005 C42.57436422893275 -20.50005, -17.895705135884498 -20.50005, -103.04443359375 -20.50005 M103.04443359375 -20.50005 C21.99612474507711 -20.50005, -59.05218410359578 -20.50005, -103.04443359375 -20.50005" stroke="#003d75" stroke-width="1.3" fill="none" stroke-dasharray="0 0"/></g><g class="divider"><path d="M-39.01323359375 -20.5 L-39.01313359375 -20.5 L-39.01313359375 60.5 L-39.01323359375 60.5" stroke="none" stroke-width="0" fill="#003d75" fill-rule="evenodd"/><path d="M-39.01323359375 -20.5 C-39.01320249680776 -20.5, -39.01317139986551 -20.5, -39.01313359375 -20.5 M-39.01323359375 -20.5 C-39.01319563508378 -20.5, -39.013157676417556 -20.5, -39.01313359375 -20.5 M-39.01313359375 -20.5 C-39.01313359375 1.82369744799378, -39.01313359375 24.14739489598756, -39.01313359375 60.5 M-39.01313359375 -20.5 C-39.01313359375 -0.685321097687627, -39.01313359375 19.129357804624746, -39.01313359375 60.5 M-39.01313359375 60.5 C-39.01316544631288 60.5, -39.013197298875774 60.5, -39.01323359375 60.5 M-39.01313359375 60.5 C-39.013164142119955 60.5, -39.013194690489904 60.5, -39.01323359375 60.5 M-39.01323359375 60.5 C-39.01323359375 30.908721129375447, -39.01323359375 1.3174422587508943, -39.01323359375 -20.5 M-39.01323359375 60.5 C-39.01323359375 38.14099315321417, -39.01323359375 15.78198630642833, -39.01323359375 -20.5" stroke="#003d75" stroke-width="1.3" fill="none" stroke-dasharray="0 0"/></g><g class="divider"><path d="M-103.04443359375 -20.50005 L-103.04443359375 -20.49995 L103.04443359375 -20.49995 L103.04443359375 -20.50005" stroke="none" stroke-width="0" fill="#003d75" fill-rule="evenodd"/><path d="M-103.04443359375 -20.50005 C-103.04443359375 -20.500016396663273, -103.04443359375 -20.49998279332654, -103.04443359375 -20.49995 M-103.04443359375 -20.50005 C-103.04443359375 -20.50002384854386, -103.04443359375 -20.499997697087718, -103.04443359375 -20.49995 M-103.04443359375 -20.49995 C-53.86492398551978 -20.49995, -4.685414377289561 -20.49995, 103.04443359375 -20.49995 M-103.04443359375 -20.49995 C-57.87887635299884 -20.49995, -12.713319112247675 -20.49995, 103.04443359375 -20.49995 M103.04443359375 -20.49995 C103.04443359375 -20.49998361417157, 103.04443359375 -20.50001722834314, 103.04443359375 -20.50005 M103.04443359375 -20.49995 C103.04443359375 -20.499989149853793, 103.04443359375 -20.50002829970759, 103.04443359375 -20.50005 M103.04443359375 -20.50005 C28.451065029880098 -20.50005, -46.142303533989804 -20.50005, -103.04443359375 -20.50005 M103.04443359375 -20.50005 C40.67482717122035 -20.50005, -21.6947792513093 -20.50005, -103.04443359375 -20.50005" stroke="#003d75" stroke-width="1.3" fill="none" stroke-dasharray="0 0"/></g></g><g class="node default" id="my-svg-entity-JOGO-1" data-look="classic" transform="translate(505.66259765625, 93)"><g class="outer-path" style=""><path d="M-139.04248046875 -81 L139.04248046875 -81 L139.04248046875 81 L-139.04248046875 81" stroke="none" stroke-width="0" fill="#003d75"/><path d="M-139.04248046875 -81 C-51.83794696463276 -81, 35.36658653948447 -81, 139.04248046875 -81 M-139.04248046875 -81 C-35.14502319838637 -81, 68.75243407197726 -81, 139.04248046875 -81 M139.04248046875 -81 C139.04248046875 -44.91096516245436, 139.04248046875 -8.82193032490872, 139.04248046875 81 M139.04248046875 -81 C139.04248046875 -40.41532346299386, 139.04248046875 0.16935307401227817, 139.04248046875 81 M139.04248046875 81 C34.16719088047573 81, -70.70809870779854 81, -139.04248046875 81 M139.04248046875 81 C74.23803844966872 81, 9.433596430587443 81, -139.04248046875 81 M-139.04248046875 81 C-139.04248046875 38.02015453431296, -139.04248046875 -4.959690931374084, -139.04248046875 -81 M-139.04248046875 81 C-139.04248046875 38.07605548674371, -139.04248046875 -4.847889026512576, -139.04248046875 -81" stroke="#003d75" stroke-width="1.3" fill="none" stroke-dasharray="0 0"/></g><g style="" class="row-rect-odd"><path d="M-139.04248046875 -41 L139.04248046875 -41 L139.04248046875 0 L-139.04248046875 0" stroke="none" stroke-width="0" fill="#ffffff"/><path d="M-139.04248046875 -41 C-57.513110063892654 -41, 24.016260340964692 -41, 139.04248046875 -41 M-139.04248046875 -41 C-30.18677049308434 -41, 78.66893948258132 -41, 139.04248046875 -41 M139.04248046875 -41 C139.04248046875 -24.80751909150922, 139.04248046875 -8.615038183018441, 139.04248046875 0 M139.04248046875 -41 C139.04248046875 -30.634810800848015, 139.04248046875 -20.26962160169603, 139.04248046875 0 M139.04248046875 0 C29.819208534119326 0, -79.40406340051135 0, -139.04248046875 0 M139.04248046875 0 C31.963500582780824 0, -75.11547930318835 0, -139.04248046875 0 M-139.04248046875 0 C-139.04248046875 -15.142424154435648, -139.04248046875 -30.284848308871297, -139.04248046875 -41 M-139.04248046875 0 C-139.04248046875 -15.266628593009624, -139.04248046875 -30.53325718601925, -139.04248046875 -41" stroke="#003d75" stroke-width="1.3" fill="none" stroke-dasharray="0 0"/></g><g style="" class="row-rect-even"><path d="M-139.04248046875 0 L139.04248046875 0 L139.04248046875 40 L-139.04248046875 40" stroke="none" stroke-width="0" fill="#e9eff5"/><path d="M-139.04248046875 0 C-54.88988935346154 0, 29.262701761826918 0, 139.04248046875 0 M-139.04248046875 0 C-60.011338398961584 0, 19.019803670826832 0, 139.04248046875 0 M139.04248046875 0 C139.04248046875 15.474131232603645, 139.04248046875 30.94826246520729, 139.04248046875 40 M139.04248046875 0 C139.04248046875 8.644518488563165, 139.04248046875 17.28903697712633, 139.04248046875 40 M139.04248046875 40 C70.20746310927801 40, 1.372445749806019 40, -139.04248046875 40 M139.04248046875 40 C56.52912532468743 40, -25.984229819375145 40, -139.04248046875 40 M-139.04248046875 40 C-139.04248046875 27.675277093555756, -139.04248046875 15.350554187111513, -139.04248046875 0 M-139.04248046875 40 C-139.04248046875 29.63130267115752, -139.04248046875 19.26260534231504, -139.04248046875 0" stroke="#003d75" stroke-width="1.3" fill="none" stroke-dasharray="0 0"/></g><g style="" class="row-rect-odd"><path d="M-139.04248046875 40 L139.04248046875 40 L139.04248046875 81 L-139.04248046875 81" stroke="none" stroke-width="0" fill="#ffffff"/><path d="M-139.04248046875 40 C-83.28590769832573 40, -27.52933492790146 40, 139.04248046875 40 M-139.04248046875 40 C-55.85682871750454 40, 27.328823033740917 40, 139.04248046875 40 M139.04248046875 40 C139.04248046875 55.670791082960605, 139.04248046875 71.34158216592121, 139.04248046875 81 M139.04248046875 40 C139.04248046875 53.71473735501763, 139.04248046875 67.42947471003527, 139.04248046875 81 M139.04248046875 81 C28.403097408715524 81, -82.23628565131895 81, -139.04248046875 81 M139.04248046875 81 C70.68321555972226 81, 2.3239506506945133 81, -139.04248046875 81 M-139.04248046875 81 C-139.04248046875 67.91488909833505, -139.04248046875 54.82977819667009, -139.04248046875 40 M-139.04248046875 81 C-139.04248046875 65.0615878650991, -139.04248046875 49.1231757301982, -139.04248046875 40" stroke="#003d75" stroke-width="1.3" fill="none" stroke-dasharray="0 0"/></g><g class="label name" transform="translate(-26.0078125, -71)" style=""><g><rect class="background" style="stroke: none"/></g><text y="-10.1" style=""><tspan class="text-outer-tspan row" x="0" y="-0.1em" dy="1.1em"><tspan font-style="normal" class="text-inner-tspan" font-weight="normal">JOGO</tspan></tspan></text></g><g class="label attribute-type" transform="translate(-126.54248046875, -31)" style=""><g><rect class="background" style="stroke: none"/></g><text y="-10.1" style=""><tspan class="text-outer-tspan row" x="0" y="-0.1em" dy="1.1em"><tspan font-style="normal" class="text-inner-tspan" font-weight="normal">int</tspan></tspan></text></g><g class="label attribute-name" transform="translate(-62.51123046875, -31)" style=""><g><rect class="background" style="stroke: none"/></g><text y="-10.1" style=""><tspan class="text-outer-tspan row" x="0" y="-0.1em" dy="1.1em"><tspan font-style="normal" class="text-inner-tspan" font-weight="normal">*id_jogo</tspan></tspan></text></g><g class="label attribute-keys" transform="translate(72.54150390625, -31)" style=""><g><rect class="background" style="stroke: none"/></g><text y="-10.1" style=""><tspan class="text-outer-tspan row" x="0" y="-0.1em" dy="1.1em"/></text></g><g class="label attribute-comment" transform="translate(72.54150390625, -31)" style=""><g><rect class="background" style="stroke: none"/></g><text y="-10.1" style=""><tspan class="text-outer-tspan row" x="0" y="-0.1em" dy="1.1em"/></text></g><g class="label attribute-type" transform="translate(-126.54248046875, 10)" style=""><g><rect class="background" style="stroke: none"/></g><text y="-10.1" style=""><tspan class="text-outer-tspan row" x="0" y="-0.1em" dy="1.1em"><tspan font-style="normal" class="text-inner-tspan" font-weight="normal">texto</tspan></tspan></text></g><g class="label attribute-name" transform="translate(-62.51123046875, 10)" style=""><g><rect class="background" style="stroke: none"/></g><text y="-10.1" style=""><tspan class="text-outer-tspan row" x="0" y="-0.1em" dy="1.1em"><tspan font-style="normal" class="text-inner-tspan" font-weight="normal">titulo</tspan></tspan></text></g><g class="label attribute-keys" transform="translate(72.54150390625, 10)" style=""><g><rect class="background" style="stroke: none"/></g><text y="-10.1" style=""><tspan class="text-outer-tspan row" x="0" y="-0.1em" dy="1.1em"/></text></g><g class="label attribute-comment" transform="translate(72.54150390625, 10)" style=""><g><rect class="background" style="stroke: none"/></g><text y="-10.1" style=""><tspan class="text-outer-tspan row" x="0" y="-0.1em" dy="1.1em"/></text></g><g class="label attribute-type" transform="translate(-126.54248046875, 50)" style=""><g><rect class="background" style="stroke: none"/></g><text y="-10.1" style=""><tspan class="text-outer-tspan row" x="0" y="-0.1em" dy="1.1em"><tspan font-style="normal" class="text-inner-tspan" font-weight="normal">int</tspan></tspan></text></g><g class="label attribute-name" transform="translate(-62.51123046875, 50)" style=""><g><rect class="background" style="stroke: none"/></g><text y="-10.1" style=""><tspan class="text-outer-tspan row" x="0" y="-0.1em" dy="1.1em"><tspan font-style="normal" class="text-inner-tspan" font-weight="normal">id_plataforma</tspan></tspan></text></g><g class="label attribute-keys" transform="translate(72.54150390625, 50)" style=""><g><rect class="background" style="stroke: none"/></g><text y="-10.1" style=""><tspan class="text-outer-tspan row" x="0" y="-0.1em" dy="1.1em"/></text></g><g class="label attribute-comment" transform="translate(72.54150390625, 50)" style=""><g><rect class="background" style="stroke: none"/></g><text y="-10.1" style=""><tspan class="text-outer-tspan row" x="0" y="-0.1em" dy="1.1em"><tspan font-style="normal" class="text-inner-tspan" font-weight="normal">CE/FK</tspan></tspan></text></g><g class="divider"><path d="M-139.04248046875 -41.00005 L-139.04248046875 -40.99995 L139.04248046875 -40.99995 L139.04248046875 -41.00005" stroke="none" stroke-width="0" fill="#003d75" fill-rule="evenodd"/><path d="M-139.04248046875 -41.00005 C-139.04248046875 -41.000013501227556, -139.04248046875 -40.99997700245512, -139.04248046875 -40.99995 M-139.04248046875 -41.00005 C-139.04248046875 -41.00002680071096, -139.04248046875 -41.00000360142192, -139.04248046875 -40.99995 M-139.04248046875 -40.99995 C-72.99285960563984 -40.99995, -6.943238742529672 -40.99995, 139.04248046875 -40.99995 M-139.04248046875 -40.99995 C-57.28219098187542 -40.99995, 24.478098504999167 -40.99995, 139.04248046875 -40.99995 M139.04248046875 -40.99995 C139.04248046875 -40.99997110023386, 139.04248046875 -40.999992200467716, 139.04248046875 -41.00005 M139.04248046875 -40.99995 C139.04248046875 -40.999977382343246, 139.04248046875 -41.0000047646865, 139.04248046875 -41.00005 M139.04248046875 -41.00005 C60.553019752311044 -41.00005, -17.93644096412791 -41.00005, -139.04248046875 -41.00005 M139.04248046875 -41.00005 C46.3700277536482 -41.00005, -46.302424961453596 -41.00005, -139.04248046875 -41.00005" stroke="#003d75" stroke-width="1.3" fill="none" stroke-dasharray="0 0"/></g><g class="divider"><path d="M-75.01128046875 -41 L-75.01118046875 -41 L-75.01118046875 81 L-75.01128046875 81" stroke="none" stroke-width="0" fill="#003d75" fill-rule="evenodd"/><path d="M-75.01128046875 -41 C-75.01125823647163 -41, -75.01123600419326 -41, -75.01118046875 -41 M-75.01128046875 -41 C-75.01125794050962 -41, -75.01123541226926 -41, -75.01118046875 -41 M-75.01118046875 -41 C-75.01118046875 3.6502068725688517, -75.01118046875 48.3004137451377, -75.01118046875 81 M-75.01118046875 -41 C-75.01118046875 -2.5230220695889614, -75.01118046875 35.95395586082208, -75.01118046875 81 M-75.01118046875 81 C-75.01120162098962 81, -75.01122277322924 81, -75.01128046875 81 M-75.01118046875 81 C-75.01121238998032 81, -75.01124431121063 81, -75.01128046875 81 M-75.01128046875 81 C-75.01128046875 42.439709454445, -75.01128046875 3.8794189088900026, -75.01128046875 -41 M-75.01128046875 81 C-75.01128046875 47.450786207186184, -75.01128046875 13.901572414372367, -75.01128046875 -41" stroke="#003d75" stroke-width="1.3" fill="none" stroke-dasharray="0 0"/></g><g class="divider"><path d="M60.04145390625 -41 L60.04155390625 -41 L60.04155390625 81 L60.04145390625 81" stroke="none" stroke-width="0" fill="#003d75" fill-rule="evenodd"/><path d="M60.04145390625 -41 C60.041480567884356 -41, 60.041507229518714 -41, 60.04155390625 -41 M60.04145390625 -41 C60.04148593553579 -41, 60.04151796482157 -41, 60.04155390625 -41 M60.04155390625 -41 C60.04155390625 7.709269960380553, 60.04155390625 56.418539920761106, 60.04155390625 81 M60.04155390625 -41 C60.04155390625 7.1859549034395656, 60.04155390625 55.37190980687913, 60.04155390625 81 M60.04155390625 81 C60.041516088091555 81, 60.0414782699331 81, 60.04145390625 81 M60.04155390625 81 C60.04153140309572 81, 60.04150889994143 81, 60.04145390625 81 M60.04145390625 81 C60.04145390625 50.43052812193534, 60.04145390625 19.861056243870678, 60.04145390625 -41 M60.04145390625 81 C60.04145390625 47.40363048808029, 60.04145390625 13.807260976160578, 60.04145390625 -41" stroke="#003d75" stroke-width="1.3" fill="none" stroke-dasharray="0 0"/></g><g class="divider"><path d="M-139.04248046875 -41.00005 L-139.04248046875 -40.99995 L139.04248046875 -40.99995 L139.04248046875 -41.00005" stroke="none" stroke-width="0" fill="#003d75" fill-rule="evenodd"/><path d="M-139.04248046875 -41.00005 C-139.04248046875 -41.00002634969616, -139.04248046875 -41.000002699392304, -139.04248046875 -40.99995 M-139.04248046875 -41.00005 C-139.04248046875 -41.000022259126794, -139.04248046875 -40.999994518253594, -139.04248046875 -40.99995 M-139.04248046875 -40.99995 C-79.20455577483881 -40.99995, -19.366631080927633 -40.99995, 139.04248046875 -40.99995 M-139.04248046875 -40.99995 C-69.27441365416963 -40.99995, 0.49365316041073015 -40.99995, 139.04248046875 -40.99995 M139.04248046875 -40.99995 C139.04248046875 -40.999989947678564, 139.04248046875 -41.00002989535713, 139.04248046875 -41.00005 M139.04248046875 -40.99995 C139.04248046875 -40.99997151367975, 139.04248046875 -40.9999930273595, 139.04248046875 -41.00005 M139.04248046875 -41.00005 C40.600267753926914 -41.00005, -57.84194496089617 -41.00005, -139.04248046875 -41.00005 M139.04248046875 -41.00005 C70.00811919632585 -41.00005, 0.9737579239017009 -41.00005, -139.04248046875 -41.00005" stroke="#003d75" stroke-width="1.3" fill="none" stroke-dasharray="0 0"/></g></g></g></g></g><defs><filter id="my-svg-drop-shadow" height="130%" width="130%"><feDropShadow dx="4" dy="4" stdDeviation="0" flood-opacity="0.06" flood-color="#000000"/></filter></defs><defs><filter id="my-svg-drop-shadow-small" height="150%" width="150%"><feDropShadow dx="2" dy="2" stdDeviation="0" flood-opacity="0.06" flood-color="#000000"/></filter></defs><linearGradient id="my-svg-gradient" gradientUnits="objectBoundingBox" x1="0%" y1="0%" x2="100%" y2="0%"><stop offset="0%" stop-color="#003d75" stop-opacity="1"/><stop offset="100%" stop-color="hsl(210, 0%, 86.862745098%)" stop-opacity="1"/></linearGradient></svg>